#!OML:ASF F:\VICON\USERDATA\INSTALL\rory3\rory3.ASF
:FULLY-SPECIFIED
:DEGREES
16
root 0.869698 16.8781 -20.3385 -3.16334 -91.6216 3.36163
lowerback 33.8563 1.20548 6.07159
upperback 7.86253 3.30241 8.04843
thorax -8.72709 0.930861 4.1652
lowerneck -8.97309 -3.47829 -2.25401
upperneck 25.4073 -2.92962 -9.629
head 9.36918 -2.85061 -3.29947
rclavicle -2.38542e-014 -5.56597e-014
rhumerus -18.8764 -47.1491 -56.4363
rradius 43.8354
rwrist -40.2389
rhand 10.6981 0.453359
rfingers 7.12502
rthumb 35.7882 -25.9149
lclavicle -2.38542e-014 -5.56597e-014
lhumerus -45.5898 4.59126 88.8135
lradius 47.2703
lwrist 7.89528
lhand -11.2439 49.6836
lfingers 7.12502
lthumb 14.7856 79.1361
rfemur -20.2016 13.5883 -4.29803
rtibia 34.5264
rfoot 0.568306 -23.8437
rtoes -5.38409
lfemur -28.7177 -0.437538 -17.269
ltibia 55.1594
lfoot -14.8679 -8.39333
ltoes -17.7519
17
root 0.894805 16.9083 -20.1626 -6.30119 -91.9094 7.05043
lowerback 33.2425 1.51268 5.72177
upperback 7.67173 3.58234 8.01132
thorax -8.74263 1.09139 4.2052
lowerneck -8.94433 -3.32242 -1.48561
upperneck 25.6267 -2.77674 -9.92687
head 9.4199 -2.74731 -3.52673
rclavicle -1.90833e-014 -2.06736e-014
rhumerus -20.6206 -46.5396 -55.1998
rradius 47.0475
rwrist -42.6166
rhand 12.0518 -1.25954
rfingers 7.12502
rthumb 37.0697 -27.3059
lclavicle -1.90833e-014 -2.06736e-014
lhumerus -45.7415 3.391 89.0431
lradius 46.6645
lwrist 8.12539
lhand -11.3327 49.181
lfingers 7.12502
lthumb 14.7 78.6399
rfemur -21.1742 13.639 -4.28179
rtibia 34.736
rfoot 2.05969 -25.4307
rtoes 5.94989
lfemur -28.9276 -1.14723 -17.4913
ltibia 54.5126
lfoot -14.483 -9.11786
ltoes -7.21876
18
root 0.88791 16.9341 -19.9582 -12.5634 -92.3018 13.3943
lowerback 32.7718 1.39003 5.91764
upperback 7.69766 3.4365 7.91763
thorax -8.4978 1.02995 4.05728
lowerneck -8.99135 -3.00916 -1.27564
upperneck 25.796 -2.33885 -10.0617
head 9.50457 -2.54987 -3.57672
rclavicle -1.27222e-014 -2.70347e-014
rhumerus -21.5251 -45.7485 -54.4885
rradius 50.1161
rwrist -44.0417
rhand 13.7779 -3.4332
rfingers 7.12502
rthumb 38.7 -29.0385
lclavicle -1.27222e-014 -2.70347e-014
lhumerus -45.9065 3.22969 88.9362
lradius 46.1668
lwrist 8.03139
lhand -9.24216 49.6887
lfingers 7.12502
lthumb 16.7133 78.9893
rfemur -21.6832 13.2508 -3.96279
rtibia 35.1544
rfoot 2.75785 -26.6554
rtoes 13.6493
lfemur -28.7929 0.189137 -17.7987
ltibia 53.9429
lfoot -13.8536 -11.1201
ltoes 2.19886
19
root 0.899213 16.9528 -19.785 -9.74035 -92.7183 10.4478
lowerback 32.7077 1.17056 4.95749
upperback 7.80604 2.83185 8.22104
thorax -8.42602 0.747864 5.11381
lowerneck -8.90343 -2.29577 -2.77476
upperneck 25.6583 -1.15893 -9.76749
head 9.53913 -2.12354 -3.09542
rclavicle 1.90833e-014 -2.22639e-014
rhumerus -20.7379 -43.4789 -54.9374
rradius 52.8744
rwrist -44.8724
rhand 14.5295 -4.36366
rfingers 7.12502
rthumb 39.4086 -29.7654
lclavicle 1.90833e-014 -2.22639e-014
lhumerus -46.3235 5.0698 88.8995
lradius 45.8227
lwrist 7.62259
lhand -11.0793 50.0055
lfingers 7.12502
lthumb 14.9441 79.4463
rfemur -22.272 12.6217 -3.66103
rtibia 36.1885
rfoot 2.89171 -27.0529
rtoes 17.4511
lfemur -28.5079 3.53476 -18.3418
ltibia 53.4643
lfoot -12.9922 -14.5758
ltoes 10.2495
20
root 0.880145 16.9794 -19.5906 -3.56494 -93.3294 4.06667
lowerback 32.4396 1.40284 4.56897
upperback 7.91814 2.95582 8.07318
thorax -8.22173 0.81754 5.11583
lowerneck -8.91608 -2.02076 -2.68555
upperneck 25.8813 -0.78202 -9.75604
head 9.63633 -1.95179 -3.07808
rclavicle 1.59028e-014 7.63333e-014
rhumerus -21.6796 -42.4973 -54.4872
rradius 55.3649
rwrist -44.409
rhand 13.6353 -1.66171
rfingers 7.12502
rthumb 38.5656 -27.3048
lclavicle 1.59028e-014 7.63333e-014
lhumerus -46.5809 4.78569 88.9812
lradius 45.4812
lwrist 7.49444
lhand -13.833 50.3983
lfingers 7.12502
lthumb 12.2901 80.0171
rfemur -22.5946 11.8913 -3.59773
rtibia 36.9833
rfoot 2.28228 -26.0954
rtoes 19.7179
lfemur -27.8058 4.86916 -19.2558
ltibia 52.7546
lfoot -12.025 -16.0582
ltoes 20.1033
21
root 0.900041 16.97 -19.4473 -5.87182 -93.5892 6.54217
lowerback 32.1582 1.59489 4.21917
upperback 7.84944 3.09629 8.11848
thorax -8.22688 0.897593 5.30114
lowerneck -9.46901 -2.292 -2.75293
upperneck 26.5037 -1.13415 -9.58536
head 9.95481 -2.13849 -3.08378
rclavicle 1.74931e-014 6.83819e-014
rhumerus -22.7114 -42.7535 -53.7271
rradius 58.4235
rwrist -44.3687
rhand 14.6765 -2.39945
rfingers 7.12502
rthumb 39.547 -27.7606
lclavicle 1.74931e-014 6.83819e-014
lhumerus -46.8605 4.68065 88.8646
lradius 45.2654
lwrist 7.4858
lhand -17.0762 51.1087
lfingers 7.12502
lthumb 9.16179 80.8897
rfemur -23.4987 10.8059 -2.76421
rtibia 38.4177
rfoot 1.09479 -24.4589
rtoes 19.5417
lfemur -27.7164 7.51899 -20.2546
ltibia 51.9388
lfoot -14.8626 -14.7312
ltoes -3.23062
22
root 0.915727 17.0958 -19.2649 -9.02737 -93.5954 9.55974
lowerback 32.147 1.43998 4.16301
upperback 7.88478 2.86914 8.12341
thorax -8.17195 0.787872 5.41889
lowerneck -9.52724 -1.74895 -2.72295
upperneck 26.5672 -0.351787 -9.63013
head 10.024 -1.78828 -3.02538
rclavicle 1.59028e-015 -9.54166e-015
rhumerus -23.2208 -42.5784 -53.4623
rradius 61.2636
rwrist -43.6035
rhand 15.6045 -2.1925
rfingers 7.12502
rthumb 40.4203 -27.2904
lclavicle 1.59028e-015 -9.54166e-015
lhumerus -47.1982 5.31425 88.6654
lradius 45.2619
lwrist 7.30712
lhand -14.8476 50.4348
lfingers 7.12502
lthumb 11.3117 80.1098
rfemur -23.5639 9.51333 -1.66656
rtibia 39.4663
rfoot 0.345246 -22.6873
rtoes 18.3983
lfemur -26.4446 -1.78148 -20.6264
ltibia 50.6753
lfoot -14.3442 -7.24135
ltoes 10.681
23
root 0.940396 17.1074 -19.1241 -0.0687195 -93.3393 0.495008
lowerback 32.1239 1.43648 3.45746
upperback 7.84 2.64739 7.86477
thorax -8.22489 0.706313 5.59922
lowerneck -10.006 -1.85014 -2.82962
upperneck 27.0956 -0.473288 -9.41264
head 10.3085 -1.86167 -2.97629
rclavicle -9.54166e-015 -1.90833e-014
rhumerus -24.2383 -42.8818 -53.0297
rradius 64.2308
rwrist -42.1559
rhand 16.3583 -1.615
rfingers 7.12502
rthumb 41.1286 -26.4904
lclavicle -9.54166e-015 -1.90833e-014
lhumerus -47.5996 5.77495 88.2698
lradius 45.3335
lwrist 6.66793
lhand -13.2803 50.0753
lfingers 7.12502
lthumb 12.8229 79.6615
rfemur -24.0258 8.10454 -1.33366
rtibia 41.0634
rfoot -0.46267 -21.2022
rtoes 17.2723
lfemur -25.7134 -2.60168 -22.3875
ltibia 49.4052
lfoot -14.9261 -2.8571
ltoes -15.1056
24
root 0.959921 17.1938 -18.9643 4.4176 -93.1732 -4.09511
lowerback 32.0318 1.38263 3.27989
upperback 7.85648 2.5029 7.57058
thorax -8.14767 0.650232 5.42964
lowerneck -9.84736 -1.49598 -2.47726
upperneck 27.1154 -0.0643453 -9.33144
head 10.2956 -1.62608 -2.95831
rclavicle -3.33958e-014 -7.95139e-014
rhumerus -25.4255 -43.2948 -52.6578
rradius 67.5825
rwrist -41.7218
rhand 16.2726 -1.61228
rfingers 7.12502
rthumb 41.0482 -26.5133
lclavicle -3.33958e-014 -7.95139e-014
lhumerus -47.6085 5.78744 87.4575
lradius 45.1695
lwrist 5.92001
lhand -11.3888 49.997
lfingers 7.12502
lthumb 14.646 79.4598
rfemur -24.1239 7.12499 -0.538025
rtibia 42.3058
rfoot -1.70463 -20.5336
rtoes 16.1996
lfemur -25.0263 -3.06534 -22.7837
ltibia 48.0924
lfoot -13.1892 -5.90447
ltoes 14.216
25
root 0.984036 17.2579 -18.8223 13.669 -92.9572 -13.4231
lowerback 32.0021 1.38547 2.80975
upperback 7.83695 2.35648 7.32824
thorax -8.15767 0.598244 5.47468
lowerneck -10.1006 -1.68982 -2.31922
upperneck 27.3903 -0.355315 -9.28512
head 10.4313 -1.75193 -3.01839
rclavicle 3.97569e-014 4.45278e-014
rhumerus -26.619 -43.3873 -52.1623
rradius 70.8575
rwrist -42.1813
rhand 15.6396 -1.41106
rfingers 7.12502
rthumb 40.4534 -26.4987
lclavicle 3.97569e-014 4.45278e-014
lhumerus -47.6469 5.688 87.0839
lradius 45.1329
lwrist 6.95878
lhand -12.3357 49.7666
lfingers 7.12502
lthumb 13.7335 79.2933
rfemur -24.4759 6.22674 0.0779101
rtibia 44.0003
rfoot -3.57377 -20.1667
rtoes 16.4912
lfemur -24.3893 -2.81129 -23.8897
ltibia 46.8029
lfoot -12.2344 -5.82761
ltoes 12.8796
26
root 1.00855 17.3393 -18.6816 20.8197 -92.9649 -20.572
lowerback 31.9367 1.42614 2.32043
upperback 7.83871 2.24974 7.1773
thorax -8.13933 0.561283 5.6147
lowerneck -9.31713 -1.18837 -2.05332
upperneck 26.716 0.282247 -9.49331
head 10.0545 -1.41562 -3.02358
rclavicle 3.18055e-015 0
rhumerus -27.6273 -43.274 -51.727
rradius 74.1814
rwrist -42.7305
rhand 14.8929 -1.30441
rfingers 7.12502
rthumb 39.7508 -26.6051
lclavicle 3.18055e-015 0
lhumerus -47.6506 4.68581 86.9692
lradius 45.3183
lwrist 8.4262
lhand -12.5683 49.6005
lfingers 7.12502
lthumb 13.5093 79.1424
rfemur -24.8591 5.3768 0.894221
rtibia 45.4329
rfoot -4.30657 -19.3995
rtoes 15.8447
lfemur -23.8587 -3.07964 -24.7948
ltibia 45.6213
lfoot -11.1903 -5.47057
ltoes 9.44227
27
root 1.02463 17.4016 -18.5325 23.5981 -92.0919 -23.4483
lowerback 31.966 0.920659 2.98681
upperback 7.7774 1.8198 7.10803
thorax -8.14206 0.352408 5.33503
lowerneck -8.78231 -0.831986 -2.0535
upperneck 26.2819 0.766502 -9.62854
head 9.81627 -1.18028 -2.9937
rclavicle -1.11319e-014 -5.725e-014
rhumerus -28.6638 -43.0868 -51.2517
rradius 77.4913
rwrist -43.4193
rhand 14.0453 -1.33162
rfingers 7.12502
rthumb 38.9523 -26.8653
lclavicle -1.11319e-014 -5.725e-014
lhumerus -47.743 5.07529 86.6977
lradius 45.3872
lwrist 8.27874
lhand -13.1174 49.7625
lfingers 7.12502
lthumb 12.9801 79.3388
rfemur -24.8471 4.14225 2.36583
rtibia 46.8256
rfoot -4.78007 -18.8846
rtoes 15.3984
lfemur -23.2119 -3.99242 -25.6515
ltibia 44.4294
lfoot -10.8009 -2.74726
ltoes -20.8152
28
root 1.06326 17.5137 -18.3996 43.3663 -92.1204 -42.8122
lowerback 31.5727 0.895762 2.31615
upperback 7.71384 1.57664 6.89971
thorax -8.05704 0.265403 5.55788
lowerneck -9.57119 -1.08388 -2.39712
upperneck 26.6467 0.483208 -9.33041
head 10.0926 -1.33935 -2.88577
rclavicle -7.95139e-015 -1.11319e-014
rhumerus -29.4785 -42.7966 -51.0129
rradius 80.6551
rwrist -43.8846
rhand 12.9885 -1.37554
rfingers 7.12502
rthumb 37.955 -27.187
lclavicle -7.95139e-015 -1.11319e-014
lhumerus -47.7562 6.09854 86.022
lradius 45.501
lwrist 7.73083
lhand -14.0083 50.2308
lfingers 7.12502
lthumb 12.1211 79.8597
rfemur -25.5042 3.1468 3.09485
rtibia 48.1379
rfoot -5.63338 -18.7702
rtoes 14.9612
lfemur -23.2921 -3.42941 -26.2696
ltibia 43.2573
lfoot -8.26391 -5.80084
ltoes -0.73205
29
root 1.10237 17.6399 -18.27 63.4232 -91.7862 -62.8506
lowerback 31.6905 0.63282 2.28914
upperback 7.69231 1.24139 6.84226
thorax -8.09826 0.109729 5.63087
lowerneck -8.97874 -0.553711 -2.40741
upperneck 26.1936 1.20337 -9.44401
head 9.84543 -0.991296 -2.82007
rclavicle -1.74931e-014 5.88403e-014
rhumerus -30.2293 -42.4453 -50.7981
rradius 83.7285
rwrist -43.8575
rhand 11.7755 -0.939633
rfingers 7.12502
rthumb 36.8084 -27.0534
lclavicle -1.74931e-014 5.88403e-014
lhumerus -47.6228 6.90639 85.5586
lradius 45.5647
lwrist 7.40126
lhand -15.9578 50.923
lfingers 7.12502
lthumb 10.2409 80.6537
rfemur -25.5371 2.2352 4.38351
rtibia 49.2781
rfoot -6.66943 -18.7305
rtoes 15.6749
lfemur -23.066 -3.57856 -26.2901
ltibia 42.2101
lfoot -4.7025 -7.70776
ltoes 21.707
30
root 1.11955 17.706 -18.128 80.511 -91.9082 -79.8217
lowerback 31.4274 0.494756 2.35233
upperback 7.72541 1.07026 6.75112
thorax -7.93519 0.0339113 5.55515
lowerneck -9.17986 -0.764116 -2.83991
upperneck 26.1404 0.962084 -9.25741
head 9.8574 -1.12323 -2.706
rclavicle 2.70347e-014 2.38542e-014
rhumerus -31.2148 -42.2532 -50.1297
rradius 86.6994
rwrist -43.791
rhand 10.5962 -0.317956
rfingers 7.12502
rthumb 35.6916 -26.7096
lclavicle 2.70347e-014 2.38542e-014
lhumerus -47.0398 5.5159 85.5244
lradius 45.5177
lwrist 8.75179
lhand -12.9051 49.7295
lfingers 7.12502
lthumb 13.1847 79.2926
rfemur -25.9063 1.09266 5.45281
rtibia 50.4707
rfoot -6.83787 -18.3576
rtoes 14.5699
lfemur -22.8344 -2.08062 -27.7047
ltibia 41.1111
lfoot -4.30397 -8.08871
ltoes -8.31306
